<?xml version="1.0" encoding="UTF-8" standalone="no"?>
<svg
   xmlns:dc="http://purl.org/dc/elements/1.1/"
   xmlns:cc="http://creativecommons.org/ns#"
   xmlns:rdf="http://www.w3.org/1999/02/22-rdf-syntax-ns#"
   xmlns:svg="http://www.w3.org/2000/svg"
   xmlns="http://www.w3.org/2000/svg"
   id="svg8"
   version="1.1"
   viewBox="0 0 30.266912 28.276581"
   height="28.276581mm"
   width="30.266912mm">
  <defs
     id="defs2" />
  <metadata
     id="metadata5">
    <rdf:RDF>
      <cc:Work
         rdf:about="">
        <dc:format>image/svg+xml</dc:format>
        <dc:type
           rdf:resource="http://purl.org/dc/dcmitype/StillImage" />
        <dc:title></dc:title>
      </cc:Work>
    </rdf:RDF>
  </metadata>
  <g
     transform="translate(-6.020753,-155.10903)"
     id="layer1">
    <path
       style="fill:none;stroke:#000000;stroke-width:2;stroke-linecap:butt;stroke-linejoin:miter;stroke-miterlimit:4;stroke-dasharray:none;stroke-opacity:1"
       d="m 9.092597,156.10903 26.193187,0.18899 v 0 l -0.0494,26.08035 -26.141772,-0.18898 c 0,0 -2.073859,0.28347 -2.073859,-5.66965 0,-7.84301 3e-6,-16.15848 3e-6,-16.15848 0,0 0.09866,-4.06325 2.071776,-4.25223 z"
       id="path3748" />
    <path
       style="fill:none;stroke:#000000;stroke-width:2;stroke-linecap:butt;stroke-linejoin:miter;stroke-miterlimit:4;stroke-dasharray:none;stroke-opacity:1"
       d="m 12.720566,182.21349 c 0,-6.01938 4.528123,-5.41744 4.528123,-5.41744 h 17.923825 l 0.0943,-0.15049"
       id="path3750" />
    <path
       style="fill:none;stroke:#000000;stroke-width:2;stroke-linecap:butt;stroke-linejoin:miter;stroke-miterlimit:4;stroke-dasharray:none;stroke-opacity:1"
       d="m 12.686102,156.16285 c 0,6.01938 4.528122,5.41744 4.528122,5.41744 h 17.92383 l 0.0943,0.15049"
       id="path3750-2" />
    <path
       style="fill:none;stroke:#000000;stroke-width:2;stroke-linecap:butt;stroke-linejoin:miter;stroke-miterlimit:4;stroke-dasharray:none;stroke-opacity:1"
       d="m 29.049174,161.58968 v 15.26079"
       id="path3784" />
    <path
       id="path834"
       transform="matrix(0.26458333,0,0,0.26458333,6.020753,155.10903)"
       d="M 13.625 7.6855469 C 11.331626 7.7128758 11.078914 7.8996382 10.583984 8.5722656 C 9.597224 9.9133092 8.9353773 11.669704 8.2382812 14.791016 L 7.7597656 16.933594 L 7.6992188 50.236328 C 7.6568748 73.579965 7.6981839 84.341246 7.8378906 86.21875 C 8.2761947 92.109075 9.502005 96.553932 11.101562 98.056641 C 11.4932 98.424562 11.69967 98.446484 15.255859 98.496094 C 17.314216 98.524804 19.577553 98.565441 20.285156 98.587891 L 21.572266 98.628906 L 21.662109 98.048828 C 21.712289 97.729631 21.844812 96.865513 21.955078 96.128906 C 23.327703 86.959368 28.320802 80.833292 36.193359 78.662109 L 37.927734 78.183594 L 60.560547 78.134766 L 83.195312 78.083984 L 83.195312 53.173828 L 83.195312 28.261719 L 60.917969 28.277344 C 36.725474 28.294915 37.681923 28.331746 34.693359 27.314453 C 27.506518 24.868083 22.782547 18.403997 21.728516 9.5742188 L 21.511719 7.7519531 L 16.683594 7.6992188 C 15.381195 7.6850192 14.389458 7.6764372 13.625 7.6855469 z M 29.224609 7.7207031 L 29.474609 9.2910156 C 29.784488 11.233985 30.71021 13.990255 31.515625 15.363281 C 32.339709 16.768133 34.209737 18.593132 35.552734 19.304688 C 36.161287 19.627115 37.246095 20.044633 37.962891 20.232422 C 39.223333 20.562639 40.372865 20.574484 72.970703 20.583984 L 106.67773 20.59375 L 106.67773 14.433594 L 106.67773 8.2714844 L 101.22266 8.2714844 C 94.807948 8.2714844 53.883122 7.9773943 39.333984 7.8261719 L 29.224609 7.7207031 z M 90.962891 28.271484 L 90.962891 53.183594 L 90.962891 78.09375 L 98.820312 78.09375 L 106.67773 78.09375 L 106.67773 53.183594 L 106.67773 28.271484 L 98.820312 28.271484 L 90.962891 28.271484 z M 73.392578 85.771484 C 43.830708 85.771484 39.898231 85.804621 38.677734 86.052734 C 33.845985 87.03497 30.697553 90.821144 29.638672 96.921875 C 29.486369 97.799378 29.379494 98.535744 29.402344 98.558594 C 29.425194 98.581444 42.382871 98.691014 58.195312 98.802734 C 74.007757 98.914454 88.310826 99.023204 89.980469 99.044922 C 91.650111 99.066642 96.050226 99.10299 99.757812 99.125 L 106.49805 99.166016 L 106.5 94.208984 C 106.50051 91.483538 106.55183 88.471262 106.61523 87.513672 L 106.73047 85.771484 L 73.392578 85.771484 z "
       style="fill:#99ff55;stroke-width:1.34983134;stroke-miterlimit:4;stroke-dasharray:none" />
  </g>
</svg>
